<?xml version="1.0" encoding="utf-8"?>
<!-- Generator: Adobe Illustrator 22.1.0, SVG Export Plug-In . SVG Version: 6.00 Build 0)  -->
<svg version="1.1" id="Layer_1" xmlns="http://www.w3.org/2000/svg" xmlns:xlink="http://www.w3.org/1999/xlink" x="0px" y="0px"
	 width="1087.2px" height="230.4px" viewBox="0 0 1087.2 230.4" style="enable-background:new 0 0 1087.2 230.4;"
	 xml:space="preserve">
<style type="text/css">
	.st0{fill:#C3F43B;}
	.st1{opacity:0.9;fill:#EA5FF9;}
	.st2{fill:#FF8E88;}
	.st3{fill:#1DD9DD;}
	.st4{fill:#1FC8CC;}
	.st5{fill:#FFFFFF;}
	.st6{fill:#333333;}
</style>
<g>
	<path class="st3" d="M185,3.7H45.3c-23,0-41.7,18.7-41.7,41.7V185c0,23,18.7,41.7,41.7,41.7h77.1V123.5h104.2V45.4
		C226.7,22.4,207.9,3.7,185,3.7z M107.8,212.1H45.3c-14.9,0-27.1-12.2-27.1-27.1v-61.5h89.6V212.1z M107.8,108.9H18.2V45.4
		c0-14.9,12.2-27.1,27.1-27.1h62.5V108.9z M212.1,108.9h-89.6V18.3H185c14.9,0,27.1,12.2,27.1,27.1V108.9z"/>
	<g>
		<path class="st6" d="M340.4,84.9c8.8-14.3,18.9-19.8,35.6-19.9v14.9c-20.9-0.4-33.9,12.6-35.6,32.3v52.8h-14.7V65.5h14.7V84.9z"/>
		<path class="st6" d="M480.2,115.1c0,29.8-20.9,50.4-50.4,50.4c-29.4,0-50.4-20.6-50.4-50.4c0-29.6,20.9-50,50.4-50
			C459.3,65.1,480.2,85.5,480.2,115.1z M394.2,115.3c0,21.9,14.9,37,35.6,37s35.6-15.1,35.6-37c0-21.7-14.9-36.8-35.6-36.8
			S394.2,93.6,394.2,115.3z"/>
		<path class="st6" d="M593.4,115.1c0,29.8-20.9,50.4-50.4,50.4c-29.4,0-50.4-20.6-50.4-50.4c0-29.6,20.9-50,50.4-50
			C572.5,65.1,593.4,85.5,593.4,115.1z M507.4,115.3c0,21.9,14.9,37,35.6,37s35.6-15.1,35.6-37c0-21.7-14.9-36.8-35.6-36.8
			S507.4,93.6,507.4,115.3z"/>
		<path class="st6" d="M777.7,103.6v61.3H763v-57.3c0-17.7-10.4-28.1-27.5-28.1c-20.6,0.6-32.4,15.3-32.4,36.6v48.8h-14.9v-57.3
			c0-17.7-10.2-28.1-27.5-28.1C640.2,80,628,94.7,628,116v48.8h-14.5V65.5H628v22.4c6.6-15.5,20-22.8,37.9-23
			c18.7,0,31.5,9.6,35.6,26c6.2-17.5,20.2-25.8,39.2-26C764,64.9,777.7,79.6,777.7,103.6z"/>
		<path class="st6" d="M891.8,121h-81.1c2.6,19.4,16.8,31.7,36,31.7c12.3,0,23-4.3,30.7-12.4l8.1,8.7c-9.4,10.6-23.4,16.6-40,16.6
			c-29.2,0-49.4-20.6-49.4-50.2c0-29.6,20.4-50.2,49.2-50.2C877.5,64.9,893.3,87.2,891.8,121z M878.6,108.9
			c-0.9-19-13.8-31.1-33.2-31.1c-18.9,0-32.4,12.3-34.7,31.1H878.6z"/>
		<path class="st6" d="M918.5,152.1l63.7,0.2v12.8l-81.5-0.2v-11.1L963,78.5l-60.5-0.2V65.5l78.3,0.2v11.1L918.5,152.1z"/>
		<path class="st6" d="M1083.5,121h-81.1c2.6,19.4,16.8,31.7,36,31.7c12.3,0,23-4.3,30.7-12.4l8.1,8.7c-9.4,10.6-23.4,16.6-40,16.6
			c-29.2,0-49.4-20.6-49.4-50.2c0-29.6,20.4-50.2,49.2-50.2C1069.2,64.9,1085,87.2,1083.5,121z M1070.3,108.9
			c-0.9-19-13.8-31.1-33.2-31.1c-18.9,0-32.4,12.3-34.7,31.1H1070.3z"/>
	</g>
</g>
</svg>
